<?xml version="1.0" encoding="iso-8859-1"?>
<!-- Generator: Adobe Illustrator 19.0.0, SVG Export Plug-In . SVG Version: 6.00 Build 0)  -->
<svg version="1.1" id="Capa_1" xmlns="http://www.w3.org/2000/svg" xmlns:xlink="http://www.w3.org/1999/xlink" x="0px" y="0px"
	 viewBox="0 0 480.002 480.002" style="enable-background:new 0 0 480.002 480.002;" xml:space="preserve">
<g>
	<g>
		<path d="M480.002,40.002v-32c0-4.424-3.584-8-8-8h-32v16h12.688l-94.088,94.088c-29.472-26.928-68.096-43.968-110.6-45.88V27.314
			l10.344,10.344l11.312-11.312l-24-24c-3.128-3.128-8.184-3.128-11.312,0l-24,24l11.312,11.312l10.344-10.344v36.888
			c-42.504,1.912-81.136,18.96-110.6,45.88l-94.088-94.08h12.688v-16h-32c-4.416,0-8,3.576-8,8v32h16V27.314l94.088,94.088
			c-26.928,29.472-43.968,68.096-45.88,110.6H27.314l10.344-10.344l-11.312-11.312l-24,24c-3.128,3.128-3.128,8.184,0,11.312l24,24
			l11.312-11.312l-10.344-10.344h36.888c1.912,42.504,18.96,81.136,45.88,110.6l-94.08,94.088v-12.688h-16v32c0,4.424,3.584,8,8,8
			h32v-16H27.314l94.088-94.088c29.472,26.928,68.096,43.968,110.6,45.88v36.888l-10.344-10.344l-11.312,11.312l24,24
			c1.56,1.568,3.608,2.352,5.656,2.352c2.048,0,4.096-0.784,5.656-2.344l24-24l-11.312-11.312l-10.344,10.344v-36.888
			c42.504-1.912,81.136-18.96,110.6-45.88l94.088,94.08h-12.688v16h32c4.416,0,8-3.576,8-8v-32h-16v12.688l-94.088-94.088
			c26.928-29.472,43.968-68.096,45.88-110.6h36.888l-10.344,10.344l11.312,11.312l24-24c3.128-3.128,3.128-8.184,0-11.312l-24-24
			l-11.312,11.312l10.352,10.344h-36.888c-1.912-42.504-18.96-81.136-45.88-110.6l94.08-94.088v12.688H480.002z M400.002,240.002
			c0,88.224-71.776,160-160,160s-160-71.776-160-160s71.776-160,160-160S400.002,151.778,400.002,240.002z"/>
	</g>
</g>
<g>
	<g>
		<path d="M343.426,184.57c-3.696-23.712-24.976-41.712-49.792-40.504c-6.96-23.312-28.768-40.064-53.632-40.064
			s-46.672,16.752-53.632,40.064c-0.2-0.008-0.392,0.032-0.6,0.024c-0.592-0.024-1.168-0.088-1.768-0.088v0.168
			c-23.848,0.008-43.856,17.456-47.424,40.4c-22.952,3.592-40.576,23.488-40.576,47.432c0,26.472,21.528,48,48,48h128
			c0,35.288,28.712,64,64,64c4.416,0,8-3.576,8-8v-56.72c22.664-3.824,40-23.536,40-47.28
			C384.002,208.058,366.378,188.162,343.426,184.57z M328.002,327.338c-22.672-3.824-40-23.592-40-47.336h40V327.338z
			 M336.002,264.002h-56h-38.864c3.576-13.768,16-24,30.864-24v-16c-10.072,0-19.416,3.128-27.144,8.456
			c-6.08-14.36-20.312-24.456-36.856-24.456v16c12.504,0,22.688,9.648,23.784,21.88c-3.512,5.392-5.952,11.528-7.064,18.12h-25.528
			c-3.72-18.232-19.872-32-39.192-32v16c10.416,0,19.216,6.712,22.528,16h-38.528c-17.648,0-32-14.352-32-32s14.352-32,32-32
			c4.416,0,8-3.576,8-8c0-17.648,14.352-32,32-32c2.192,0,4.44,0.256,6.872,0.792h0.016c14.336,3.16,25.112,15.928,25.112,31.208h16
			c0-20.072-12.392-37.28-29.92-44.44c5.304-16.088,20.544-27.56,37.92-27.56c19.664,0,36.648,14.672,39.512,34.136
			c0.32,2.192,1.536,4.16,3.36,5.416c1.824,1.264,4.088,1.688,6.248,1.24c2.44-0.536,4.688-0.792,6.88-0.792
			c17.648,0,32,14.352,32,32s-14.352,32-32,32v16c23.432,0,42.968-16.888,47.144-39.128c14.208,3.264,24.856,15.944,24.856,31.128
			C368.002,249.65,353.65,264.002,336.002,264.002z"/>
	</g>
</g>
<g>
	<g>
		<path d="M256.002,168.002v16c13.232,0,24,10.768,24,24h16C296.002,185.946,278.058,168.002,256.002,168.002z"/>
	</g>
</g>
<g>
</g>
<g>
</g>
<g>
</g>
<g>
</g>
<g>
</g>
<g>
</g>
<g>
</g>
<g>
</g>
<g>
</g>
<g>
</g>
<g>
</g>
<g>
</g>
<g>
</g>
<g>
</g>
<g>
</g>
</svg>
