<?xml version="1.0" encoding="iso-8859-1"?>
<!-- Generator: Adobe Illustrator 19.0.0, SVG Export Plug-In . SVG Version: 6.00 Build 0)  -->
<svg version="1.1" id="Layer_1" xmlns="http://www.w3.org/2000/svg" xmlns:xlink="http://www.w3.org/1999/xlink" x="0px" y="0px"
	 viewBox="0 0 512 512" style="enable-background:new 0 0 512 512;" xml:space="preserve">
<path style="fill:#FFA91E;" d="M469.269,135.043c0,36.975-14.654,71.482-41.271,97.175c-5.977,5.767-11.208,12.206-15.609,19.149
	c-6.156,9.685-10.725,20.347-13.477,31.513c-2.059,8.256-3.12,16.786-3.12,25.399v39.286H272.671v-39.822
	c0-8.466-1.029-16.796-3.036-24.864c-2.742-11.114-7.332-21.733-13.614-31.513c-4.496-7.017-9.864-13.603-16.051-19.633
	c-26.996-26.313-41.471-61.587-40.757-99.318c0.662-35.053,14.822-68.089,39.864-93.005C264.11,14.506,297.219,0.504,332.282,0.01
	C332.934,0,333.585,0,334.236,0c35.694-0.011,69.318,13.761,94.801,38.876C454.983,64.454,469.269,98.604,469.269,135.043z"/>
<path style="fill:#FF8900;" d="M469.269,135.043c0,36.975-14.654,71.482-41.271,97.175c-5.977,5.767-11.208,12.206-15.609,19.149
	c-6.156,9.685-10.725,20.347-13.477,31.513c-2.059,8.256-3.12,16.786-3.12,25.399v39.286h-61.555V0
	c35.694-0.011,69.318,13.761,94.801,38.876C454.983,64.454,469.269,98.604,469.269,135.043z"/>
<path style="fill:#00D9DF;" d="M407.283,260.38c-3.624,7.153-6.45,14.695-8.372,22.5c-2.059,8.256-3.12,16.786-3.12,25.399v39.286
	H272.671v-39.822c0-8.466-1.029-16.796-3.036-24.864c-1.922-7.784-4.769-15.315-8.445-22.5H407.283L407.283,260.38z"/>
<path style="fill:#FFDBA8;" d="M491.244,430.056c-0.462,0.882-0.956,1.754-1.471,2.595c-5.935,9.811-15.137,17.017-26.177,20.473
	L274.992,512l-157.291-54.181L15.358,489.353V357.093l88.688-31.271c32.616-10.179,67.301-7.164,97.679,8.477l123.299,63.54
	l110.547-34.517c11.985-3.74,24.717-2.595,35.851,3.246c11.124,5.83,19.317,15.641,23.057,27.637
	C498.229,406.201,497.074,418.932,491.244,430.056z"/>
<path style="fill:#FFC473;" d="M489.773,432.651c-5.935,9.811-15.137,17.017-26.177,20.473L274.992,512l-157.291-54.181
	L15.358,489.353V405.98l88.688-31.271c32.616-10.179,67.301-7.164,97.679,8.477l123.299,63.54l110.547-34.517
	c11.985-3.74,24.717-2.595,35.851,3.246C479.111,419.489,485.404,425.413,489.773,432.651z"/>
<path style="fill:#00B7BF;" d="M407.283,260.38c-3.624,7.153-6.45,14.695-8.372,22.5c-2.059,8.256-3.12,16.786-3.12,25.399v39.286
	h-61.555V260.38H407.283z"/>
<polygon style="fill:#FFFFFF;" points="364.856,136.482 364.856,167.995 349.982,167.995 349.982,254.718 318.469,254.718 
	318.469,167.995 303.607,167.995 303.607,136.482 "/>
<polygon style="fill:#D9D8DB;" points="364.856,136.482 364.856,167.995 349.982,167.995 349.982,254.718 334.236,254.718 
	334.236,136.482 "/>
<path style="fill:#C8C6CD;" d="M412.388,251.368c-6.156,9.685-10.725,20.347-13.477,31.513H269.635
	c-2.742-11.114-7.332-21.733-13.614-31.513L412.388,251.368L412.388,251.368z"/>
<path style="fill:#AEADB3;" d="M412.388,251.368c-6.156,9.685-10.725,20.347-13.477,31.513h-64.675v-31.513L412.388,251.368
	L412.388,251.368z"/>
<g>
</g>
<g>
</g>
<g>
</g>
<g>
</g>
<g>
</g>
<g>
</g>
<g>
</g>
<g>
</g>
<g>
</g>
<g>
</g>
<g>
</g>
<g>
</g>
<g>
</g>
<g>
</g>
<g>
</g>
</svg>
