<?xml version="1.0" encoding="iso-8859-1"?>
<!-- Generator: Adobe Illustrator 19.0.0, SVG Export Plug-In . SVG Version: 6.00 Build 0)  -->
<svg version="1.1" id="Capa_1" xmlns="http://www.w3.org/2000/svg" xmlns:xlink="http://www.w3.org/1999/xlink" x="0px" y="0px"
	 viewBox="0 0 512 512" style="enable-background:new 0 0 512 512;" xml:space="preserve">
<g>
	<g>
		<g>
			<path d="M373.33,192c29.419,0,53.333-23.936,53.333-53.333c0-5.888-4.779-10.667-10.667-10.667
				c-29.419,0-53.333,23.936-53.333,53.333C362.663,187.221,367.442,192,373.33,192z M402.215,152.448
				c-3.179,6.592-8.512,11.947-15.083,15.083C390.29,160.939,395.623,155.605,402.215,152.448z"/>
			<path d="M223.996,42.667H181.33c-5.888,0-10.667,4.779-10.667,10.667S175.442,64,181.33,64h42.667
				c5.888,0,10.667-4.779,10.667-10.667S229.884,42.667,223.996,42.667z"/>
			<path d="M288.423,42.667h-0.213c-5.888,0-10.56,4.779-10.56,10.667S282.535,64,288.423,64s10.667-4.779,10.667-10.667
				S294.311,42.667,288.423,42.667z"/>
			<path d="M351.996,422.912c-5.888,0-10.667,4.779-10.667,10.667v25.088c0,17.643-14.357,32-32,32H95.996
				c-17.643,0-32-14.357-32-32v-53.333h192c5.888,0,10.667-4.779,10.667-10.667S261.884,384,255.996,384h-192V106.667H341.33v18.816
				c0,5.888,4.779,10.667,10.667,10.667c5.888,0,10.667-4.779,10.667-10.667V53.333C362.663,23.936,338.748,0,309.33,0H95.996
				C66.578,0,42.663,23.936,42.663,53.333v405.333c0,29.397,23.915,53.333,53.333,53.333H309.33
				c29.419,0,53.333-23.936,53.333-53.333v-25.088C362.663,427.691,357.884,422.912,351.996,422.912z M63.996,53.333
				c0-17.643,14.357-32,32-32H309.33c17.643,0,32,14.357,32,32v32H63.996V53.333z"/>
			<path d="M467.644,323.115c-1.685-2.645-4.459-4.416-7.573-4.821c-15.211-2.005-26.688-14.485-26.688-29.035
				c0-12.693,8.619-23.893,21.483-27.883c3.2-0.981,5.76-3.435,6.891-6.592c1.109-3.157,0.704-6.677-1.152-9.472
				c-12.437-18.816-32.299-31.957-48.299-31.957c-10.709,0-20.373,3.136-28.885,5.888c-6.592,2.112-12.821,4.139-17.941,4.139
				c-5.141,0-11.349-2.027-17.941-4.16c-8.533-2.773-18.176-5.888-28.885-5.888c-24.939,0-62.677,32.277-62.677,80.939
				c0,45.867,35.115,111.061,67.883,111.061c15.701,0,25.259-4.139,32.256-7.147c8.832-3.797,9.941-3.797,18.731,0
				c6.976,3.008,16.576,7.147,32.256,7.147c24.512,0,50.667-37.291,61.76-73.323C469.799,329.003,469.33,325.76,467.644,323.115z
				 M407.1,383.979c-11.285,0-17.643-2.731-23.787-5.397c-5.291-2.283-10.752-4.629-17.813-4.629
				c-7.083,0-12.544,2.368-17.835,4.651c-6.144,2.645-12.523,5.397-23.787,5.397c-13.888,0-46.549-46.933-46.528-89.749
				c0-38.72,29.333-59.605,41.344-59.605c7.339,0,14.613,2.368,22.293,4.864c7.872,2.539,16,5.184,24.512,5.184
				c8.491,0,16.64-2.624,24.491-5.184c7.701-2.517,14.976-4.864,22.315-4.864c4.8,0,14.059,4.075,22.635,12.715
				c-14.101,9.259-22.891,24.747-22.891,41.856c0,20.928,13.419,39.381,32.747,46.976
				C433.596,364.459,415.527,383.979,407.1,383.979z"/>
			<path d="M181.33,448c0,11.776,9.557,21.333,21.333,21.333s21.333-9.557,21.333-21.333s-9.557-21.333-21.333-21.333
				S181.33,436.224,181.33,448z"/>
		</g>
	</g>
</g>
<g>
</g>
<g>
</g>
<g>
</g>
<g>
</g>
<g>
</g>
<g>
</g>
<g>
</g>
<g>
</g>
<g>
</g>
<g>
</g>
<g>
</g>
<g>
</g>
<g>
</g>
<g>
</g>
<g>
</g>
</svg>
